Patient4_TMGait_0pt3_03_left_02_EMG.mot
version=1
nRows=30
nColumns=33
inDegrees=no
endheader
time	1LAddLong	2LGlutMax	3LGlutMed	4LIliopsoas	5LSemiMemb	6LBicFemLong	7LRecFem	8LVastMed	9LVastLat	10LGasMed	11LTibAnt	12lTibPost	13LPeroneusLong	14LSol	15LExtDigLong	16LFlexDigLong	17RAddLong	18RGlutMax	19RGlutMed	20RIliopsoas	21RSemiMemb	22RBicFemLong	23RRecFem	24RVastMed	25RVastLat	26RGasMed	27RTibAnt	28RTibPost	29RPeroneusLong	30RSol	31RExtDigLong	32RFlexDigLong
3.99	-0.019684	-0.15213	-0.075073	-0.003357	0.042877	0.009003	-0.036316	0.015717	-0.046387	-0.06485	-0.061035	0.00412	0.036163	-0.065002	0.24811	0.005035	0.069275	-0.020905	0.62683	0.1947	0.43884	-0.046082	0.049591	0.057373	0.33493	-0.17014	0.03418	-0.015411	-0.19775	-0.38193	-0.00351	-0.001526
3.991	0.013885	-0.16296	-0.13916	0.00824	0.058289	0.036621	-0.069275	0.012207	-0.10864	-0.052948	0.041809	0.003052	-0.027618	0.060425	0.30106	0.016785	0.025635	0.010681	0.46783	0.015411	0.30685	0.11917	0.12619	0.057526	1.0062	0.059662	-0.019989	-0.058136	0.09903	0.001373	0.002747	-0.00351
3.992	0.034943	-0.1683	-0.12512	-0.008545	0.061951	-0.098419	-0.084381	-0.000916	-0.026398	-0.033875	0.15243	0.001373	-0.12436	0.04837	0.59555	0.010223	0.015717	0.020905	0.41336	-0.074463	0.11017	0.30823	0.14511	0.19577	1.254	0.13672	-0.028992	0.046692	0.15488	0.3569	-0.000153	-0.016022
3.993	0.051727	-0.14236	-0.1004	0.001678	0.032501	-0.15305	-0.073547	-0.002441	0.004883	-0.050964	0.14145	0.001678	-0.098419	0.003204	0.048065	0.000153	-0.039825	0.014343	0.23514	-0.089874	0.037537	0.43884	0.037842	0.18967	1.051	0.17273	-0.011139	0.14648	0.091705	0.50339	-0.002441	-0.015564
3.994	0.054626	-0.15854	-0.16571	0.006866	0.027618	-0.15884	-0.030823	-0.015717	-0.010376	-0.036316	0.055237	0.003357	-0.068817	0.012665	0.043945	0.005035	-0.06546	0.053101	0.077515	-0.045929	0.04364	0.42145	-0.20538	0.25574	0.46417	0.099945	0.018005	0.063019	0.030823	0.16068	-0.001984	-0.016022
3.995	0.061035	-0.121	-0.18494	-0.012512	0.067596	-0.20569	0.016479	-0.020599	0.003204	-0.032806	0.027466	0.000763	-0.057678	0.014343	-0.056152	-0.001373	-0.046997	0.085602	0.067596	-0.025635	0.14862	0.2298	-0.23453	0.34256	-0.22797	0.035706	0.036926	-0.23605	-0.11307	-0.26184	-0.000458	-0.016479
3.996	0.046234	-0.11185	-0.14038	0.008392	0.059814	-0.053406	0.057831	-0.025024	0.00061	-0.040131	0.020294	0.001373	-0.057831	0.012512	-0.078735	-0.00412	-0.034332	-0.018463	-0.004883	-0.11932	0.18204	0.16724	-0.082703	0.20615	-0.81039	0.011749	-0.079956	-0.007629	-0.05661	-0.61249	0.001526	-0.003815
3.997	0.032043	-0.11108	-0.17014	0.01297	0.036163	0.058899	0.090179	-0.015106	-0.00946	-0.050964	-0.013275	0.00473	-0.002136	0.07309	0.094604	0.013428	-0.027924	-0.035095	0.022278	-0.2066	0.22598	0.10391	0.078888	0.75684	-1.2004	0.011597	-0.11002	0.061493	0.10574	0.052643	0.001221	0.00351
3.998	0.010986	-0.12177	-0.18631	0.006561	-0.006256	0.10849	0.079193	-0.00885	-0.007324	-0.06134	0.005035	0.005188	-0.04715	0.080261	0.15335	-0.006409	-0.006104	-0.094757	0.12344	-0.15396	0.22568	0.025177	0.1889	1.3579	-1.1736	0.006714	-0.061493	-0.069733	0.12375	0.30807	0.002136	-0.001526
3.999	-0.003052	-0.15503	-0.15991	0.015106	-0.019073	0.044556	0.044098	-0.000763	-0.020142	-0.040894	0.015717	0.004272	-0.10315	0.046692	0.073547	0.010529	-0.000458	-0.091705	0.021973	-0.044403	0.22324	0.027466	0.32349	1.2166	-0.90927	-0.009155	0.28595	-0.050812	0.3746	0.19989	0.002441	-0.009918
4	0.00824	-0.089569	-0.12054	0.003662	-0.040283	-0.002441	-0.007935	0.000153	0.001221	-0.040588	0.081177	-0.006256	-0.076599	0.11383	-0.030975	0.013733	0.023346	-0.10132	0.27634	-0.037689	0.20538	-0.11337	0.37582	0.65201	-0.61691	0.007324	0.28351	0.1062	0.33798	-0.088348	0.004425	-0.009155
4.001	0.014954	-0.084381	-0.09903	-0.007019	-0.052948	-0.002747	0.015717	-0.000153	0.002747	-0.048981	0.056915	0.001984	-0.010376	0.10117	-0.028534	0.012512	0.043488	-0.14847	0.20523	-0.067749	0.15427	-0.11932	0.31036	-0.041656	-0.17868	-0.020142	0.29465	0.11597	0.037079	-0.33173	-0.000916	-0.01236
4.002	-0.001221	-0.09964	-0.1564	0.000916	-0.097504	0.025482	0.04776	0.003662	-0.011597	-0.033264	0.19165	0.009766	-0.045013	0.1265	0.013275	0.003662	0.071106	-0.20233	0.058136	-0.016785	0.15274	-0.039368	0.13763	-0.5368	0.34653	-0.000458	-0.065002	0.088806	0.10712	0.50079	0.00351	-0.00885
4.003	-0.011902	-0.099335	-0.15869	0.014038	-0.099792	-0.058899	0.050049	0.0177	-0.00946	-0.056763	0.11215	0.00351	-0.011139	0.096436	0.12116	0.010529	0.050507	-0.1384	0.12878	0.053558	0.26504	0.019531	-0.056152	-0.91858	0.55023	0.016785	-0.10574	0.037384	0.11765	0.55496	0	-0.00824
4.004	-0.014343	-0.097809	-0.15472	-0.009003	-0.095825	-0.1268	0.047913	0.012512	-0.023804	-0.039825	-0.031281	-0.001068	0.005951	0.037994	0.10666	-0.014343	0.02655	-0.1384	0.071411	0.10651	0.27268	0.036926	-0.019379	-1.0501	0.4042	0.01709	-0.14893	-0.025635	0.12878	0.23773	0.003357	-0.009613
4.005	-0.011139	-0.12833	-0.17227	-0.009003	0.025177	-0.032196	0.029449	0.011292	-0.0177	-0.011139	-0.039368	0.005035	-0.024261	-0.039673	0.10162	-0.005798	0.033264	-0.16098	0.068054	0.018768	0.30579	0.046082	0.019073	-0.93979	0.024567	-0.001221	-0.062256	-0.027771	0.11673	-0.16739	0.001678	-0.031738
4.006	0.005341	-0.068054	-0.16937	-0.007935	0.10681	0.018768	0.002289	-0.001068	-0.01358	-0.036316	0.038605	0.003204	-0.038452	-0.032349	0.31189	0.011139	0.058899	-0.19684	0.076141	0.009155	0.15106	-0.031281	-0.032349	-0.55466	-0.29404	-0.002899	-0.092468	-0.046539	0.15198	-0.21316	0.000305	-0.022736
4.007	0.012817	-0.056458	-0.15549	0.005035	0.10712	0.045624	-0.010071	-0.001831	0.000458	-0.062714	0.095215	0.00473	-0.011139	0.043335	-0.44342	0.006561	0.098114	-0.24887	0.048676	-0.034943	0.055542	-0.045471	0.086365	-0.345	-0.45349	-0.05661	-0.13001	-0.066376	-0.071259	-0.21072	0.000916	-0.019836
4.008	0.02655	-0.081329	-0.177	0.013733	0.075684	-0.025482	-0.032196	0.001831	0.024414	-0.071716	-0.017548	0.006866	0.018921	0.11215	-0.51193	0.017853	0.09491	-0.34302	-0.005951	-0.029449	0.015106	-0.024414	0.087738	-0.23727	-0.42587	-0.060883	-0.051422	-0.050659	-0.52811	0.084534	0.001068	-0.012817
4.009	0.011292	-0.072479	-0.18356	0.019073	0.026703	-0.032043	0.010529	0.001526	-0.008392	-0.055542	0.020142	-0.000153	-0.054626	0.056	-0.44418	0.001526	0.059814	-0.31799	-0.007629	-0.070648	0.13199	0.19165	0.049286	-0.049896	-0.39383	-0.05661	0.023346	-0.041351	-0.98465	-0.033875	0.000763	-0.006866
4.01	0.00473	-0.054321	-0.18234	0.01236	0.003815	-0.03418	0.012512	0.005646	-0.013428	-0.0354	0.08255	0.003967	-0.085602	0.020447	-0.31311	-0.006409	0.023956	-0.20721	0.018311	-0.10483	0.41794	0.27039	-0.045929	-0.14923	0.072327	-0.000458	0.022278	-0.00351	-0.54688	-0.24536	0.001984	-0.005493
4.011	-0.00946	-0.087738	-0.19608	0.015106	0.00061	-0.1059	0.020599	0.013428	-0.013275	-0.024109	0.080719	0.000763	-0.11643	-0.059509	-0.13397	-0.003357	-0.064392	-0.112	0.077667	-0.14282	0.54474	0.31387	-0.10513	-0.16205	0.24948	0.008392	0.040283	0.008545	0.089417	-0.24826	0.001221	-0.00946
4.012	-0.025177	-0.089874	-0.16708	-0.000458	0.021057	-0.12665	0.01709	0.014648	-0.011597	-0.055237	0.04776	0.001068	-0.10223	-0.011444	-0.042419	0.004425	-0.089264	-0.053101	0.11292	-0.19516	0.40695	0.3978	-0.028839	0.036621	0.22507	-0.024109	0.023956	-0.023346	0.34164	-0.21835	-0.000458	-0.016174
4.013	-0.036926	-0.090485	-0.039825	-0.003204	0.0177	-0.054779	0.022583	0.014801	-0.00824	-0.049591	-0.044556	-0.006866	0.06073	0.01297	-0.027466	0.019379	-0.042419	0.03479	0.15625	-0.041504	0.25345	0.46738	-0.079193	0.059662	0.051727	-0.048828	-0.050964	-0.20386	0.61188	-0.13992	0.000305	-0.018768
4.014	-0.039215	-0.090179	-0.087433	0.024414	0.031433	0.14435	0.024872	0.006256	-0.011902	-0.05661	-0.39261	0.003815	0.15366	0.069733	0.069122	0.018158	-0.028076	0.075073	0.13641	0.020142	0.35416	0.45731	-0.35355	0.063782	-0.001068	-0.046234	0.014954	-0.11643	0.35965	-0.23056	0.010071	-0.01709
4.015	-0.010223	-0.077667	-0.21606	0.02182	-0.012665	0.21347	0.040131	0.014496	0.003662	-0.04303	-0.20828	-0.006561	0.048218	0.11368	0.073395	0.005188	-0.049133	0.20523	0.28915	0.092163	0.2681	0.4158	-0.32516	0.14893	-0.10757	-0.052338	0.088348	0.16647	0.19348	0.31006	0.002747	-0.015869
4.016	0.010223	-0.087433	-0.17807	0.005646	-0.043793	0.23422	0.005798	0.011139	-0.002441	-0.018616	0.16083	-0.005341	-0.032806	0.057678	0.078125	0.014496	-0.067749	0.11826	0.25131	0.16373	0.058899	0.46677	-0.081787	0.19501	-0.00946	0.011444	0.050964	0.11505	0.30411	0.56122	-0.002899	-0.010071
4.017	0.017242	-0.040436	-0.12711	-0.019226	0.010529	0.15991	0.018158	0.011597	-0.019379	-0.031281	0.14893	-0.002899	-0.019989	-0.019531	0.1207	0.015259	-0.07019	-0.042725	0.17487	0.20844	0.040588	0.5722	0.044861	0.15411	0.099945	-0.065308	0.034027	0.067139	0.17853	0.54321	0.001831	-0.014191
4.018	0.037994	-0.093689	-0.11292	-0.006104	0.023041	0.092163	0.04425	-0.002289	-0.023651	-0.020447	0.002289	0.02182	0.003204	-0.013733	0.003967	0.019379	-0.035248	-0.10696	0.3125	0.18662	-0.054169	0.62744	0.031433	0.22995	0.45532	-0.04303	0.04715	0.015564	0.047455	0.52978	0.001068	-0.006104
4.019	0.038147	-0.058289	-0.11536	0.003357	0.029602	-0.04715	-0.00351	0.003204	0.001984	-0.027313	-0.13473	-0.007324	-0.041199	-0.075073	-0.1799	-0.002136	0.001678	-0.0737	0.30914	0.13397	0.051117	0.51407	0.11185	0.16434	1.1119	0.021057	0.000305	0.005951	0.32989	0.28473	-0.001678	-0.011444
